<svg width="748" height="910" viewBox="0 0 748 910" fill="none" xmlns="http://www.w3.org/2000/svg">
<g clip-path="url(#clip0_15_131)">
<path d="M403.742 838.594C405.082 838.332 406.477 838.233 407.753 837.788C441.772 825.911 476.825 819.114 512.758 817.234C525.567 816.564 538.469 817.167 551.302 817.757C554.189 817.889 557.428 819.872 559.721 821.891C580.622 840.301 604.758 852.623 631.029 861.479C643.184 865.575 654.865 863.099 666.668 861.323C668.777 861.006 672.095 857.083 671.901 855.113C671.036 846.265 671.538 835.926 667.043 829.076C658.075 815.404 646.155 803.668 634.768 790.327C634.102 791.919 634.198 791.326 634.535 790.945C636.166 789.092 637.732 787.153 639.555 785.501C663.6 763.714 665.969 735.246 660.301 706.607C654.54 677.498 644.611 649.211 636.399 620.595C633.716 611.249 630.696 602 627.769 592.51C629.764 591.73 630.732 591.282 631.74 590.965C674.365 577.542 706.263 550.198 730.797 513.757C733.33 509.995 734.306 500.589 732.253 499.152C724.281 493.57 723.889 485.029 720.769 477.538C718.188 471.343 714.136 468.906 707.115 470.618C688.792 475.083 670.718 482.386 651.235 476.691C648.381 475.856 645.324 475.599 642.339 475.343C629.179 474.215 616.012 473.185 602.842 472.119C602.902 471.815 602.864 471.471 603.014 471.337C603.819 470.619 604.659 469.94 605.504 469.271C640.549 441.533 655.96 404.274 655.137 360.708C654.607 332.68 645.369 306.379 628.947 283.278C625.377 278.255 626.324 275.028 629.318 271.057C649.369 244.449 665.578 215.748 677.935 184.746C697.845 134.793 704.483 83.3302 695.929 30.2593C694.585 21.9267 690.927 10.14 684.863 7.26056C674.917 2.53694 666.609 12.53 659.32 19.6582C638.047 40.4635 622.924 65.5393 610.401 92.1252C594.921 124.985 585.125 159.715 579.446 195.582C577.858 205.609 576.538 215.677 575.013 226.297C572.243 224.769 570.478 223.995 568.929 222.912C540.555 203.07 508.202 195.569 474.434 194.064C440.281 192.542 407.364 199.32 376.432 214.122C370.402 217.007 367.882 215.477 364.579 210.577C345.289 181.956 321.075 157.99 294.431 136.177C262.924 110.382 227.937 90.6964 189.836 76.9846C171.948 70.5474 152.936 67.0577 134.255 63.0677C124.286 60.9384 119.946 65.6088 120.818 75.6952C121.05 78.377 121.444 81.3129 122.724 83.5936C132.486 100.984 141.434 118.959 152.65 135.376C170.968 162.186 193.969 184.89 219.485 205.028C244.978 225.148 272.419 241.922 302.472 254.361C306.365 255.972 310.06 258.063 312.644 259.337C304.67 273.19 295.892 285.614 290.095 299.299C284.248 313.1 281.358 328.153 277.578 341.254C240.095 323.319 202.716 305.023 164.984 287.487C121.412 267.238 76.1158 251.631 29.7541 239.032C11.7019 234.127 9.20936 236.627 13.045 255.145C19.0172 283.979 23.9052 313.044 30.1944 341.804C38.8249 381.273 48.1865 420.584 57.7353 459.842C58.5506 463.194 62.7125 467.484 66.0109 468.212C101.785 476.111 137.767 483.072 173.546 490.954C193.719 495.398 213.619 501.078 235.29 506.623C214.576 531.014 195.053 554.004 174.625 578.058C197.243 592.385 218.551 605.882 240.628 619.866C238.365 621.962 237.247 623.157 235.975 624.153C223.061 634.27 210.121 644.351 197.192 654.447C189.905 660.137 190.223 663.083 198.476 667.057C210.829 673.004 223.226 678.861 235.478 685.007C242.216 688.388 248.696 692.283 255.774 696.214C247.413 706.026 240.123 715.228 232.103 723.746C227.461 728.677 228.482 731.358 233.731 734.32C248.989 742.933 264.086 751.835 279.417 760.313C285.416 763.631 289.416 767.601 291.068 774.732C294.127 787.936 299.673 800.364 309.409 810.019C313.915 814.489 314.385 818.173 312.382 823.621C306.403 839.884 305.982 856.774 307.049 873.867C307.692 884.151 312.919 893.623 320.275 897.801C327.947 902.156 338.444 898.074 346.544 892.548C347.219 892.087 347.783 891.464 348.443 890.977C363.984 879.522 372.948 863.294 381.088 846.407C382.124 844.258 384.094 841.607 386.126 841.076C391.366 839.706 396.882 839.392 403.742 838.594Z" fill="black"/>
<path d="M403.015 838.625C396.882 839.392 391.366 839.706 386.126 841.076C384.094 841.607 382.124 844.258 381.088 846.407C372.948 863.294 363.984 879.522 348.443 890.977C347.783 891.464 347.219 892.087 346.544 892.548C338.444 898.074 327.947 902.156 320.275 897.801C312.919 893.623 307.692 884.151 307.049 873.867C305.982 856.774 306.403 839.884 312.382 823.621C314.385 818.173 313.915 814.489 309.409 810.019C299.673 800.364 294.127 787.936 291.068 774.732C289.416 767.601 285.416 763.631 279.417 760.313C264.086 751.835 248.989 742.933 233.731 734.32C228.482 731.358 227.461 728.677 232.103 723.746C240.123 715.228 247.413 706.026 255.774 696.214C248.696 692.283 242.216 688.388 235.478 685.007C223.226 678.861 210.829 673.004 198.476 667.057C190.223 663.083 189.905 660.137 197.192 654.447C210.121 644.351 223.061 634.27 235.975 624.153C237.247 623.157 238.365 621.962 240.628 619.866C218.551 605.882 197.243 592.385 174.625 578.058C195.053 554.004 214.576 531.014 235.29 506.623C213.619 501.078 193.719 495.398 173.546 490.954C137.767 483.072 101.785 476.111 66.0109 468.212C62.7125 467.484 58.5506 463.194 57.7353 459.842C48.1865 420.584 38.8249 381.273 30.1944 341.804C23.9052 313.044 19.0172 283.979 13.045 255.145C9.20936 236.627 11.7019 234.127 29.7541 239.032C76.1158 251.631 121.412 267.238 164.984 287.487C202.716 305.023 240.095 323.319 277.578 341.254C281.358 328.153 284.248 313.1 290.095 299.299C295.892 285.614 304.67 273.19 312.644 259.337C310.06 258.063 306.365 255.972 302.472 254.361C272.419 241.922 244.978 225.148 219.485 205.028C193.969 184.89 170.968 162.186 152.65 135.376C141.434 118.959 132.486 100.984 122.724 83.5936C121.444 81.3129 121.05 78.377 120.818 75.6952C119.946 65.6088 124.286 60.9385 134.255 63.0677C152.936 67.0577 171.948 70.5474 189.836 76.9846C227.937 90.6964 262.924 110.382 294.431 136.177C321.075 157.99 345.289 181.956 364.579 210.577C367.882 215.477 370.402 217.007 376.432 214.122C407.364 199.32 440.281 192.542 474.434 194.064C508.202 195.569 540.555 203.07 568.929 222.912C570.478 223.995 572.243 224.769 575.013 226.297C576.538 215.677 577.858 205.609 579.446 195.582C585.125 159.715 594.921 124.985 610.401 92.1252C622.924 65.5393 638.047 40.4635 659.32 19.6582C666.609 12.53 674.917 2.53694 684.863 7.26056C690.927 10.14 694.585 21.9267 695.929 30.2593C704.483 83.3302 697.845 134.793 677.935 184.746C665.578 215.748 649.369 244.449 629.318 271.057C626.324 275.028 625.377 278.255 628.947 283.278C645.369 306.379 654.607 332.68 655.137 360.708C655.96 404.274 640.549 441.533 605.504 469.271C604.659 469.94 603.819 470.619 603.014 471.337C602.864 471.471 602.902 471.815 602.842 472.119C616.012 473.185 629.179 474.215 642.339 475.343C645.324 475.599 648.381 475.856 651.235 476.691C670.718 482.386 688.792 475.083 707.115 470.618C714.136 468.906 718.188 471.343 720.769 477.538C723.889 485.029 724.281 493.57 732.253 499.152C734.306 500.589 733.33 509.995 730.797 513.757C706.263 550.198 674.365 577.542 631.74 590.965C630.732 591.282 629.764 591.73 627.769 592.51C630.696 602 633.716 611.249 636.399 620.595C644.611 649.211 654.54 677.498 660.301 706.607C665.969 735.246 663.6 763.714 639.555 785.501C637.732 787.153 636.166 789.092 634.535 790.945C634.198 791.326 634.102 791.919 634.768 790.327C646.155 803.668 658.075 815.404 667.043 829.076C671.538 835.926 671.036 846.265 671.901 855.113C672.095 857.083 668.777 861.006 666.668 861.323C654.865 863.099 643.184 865.575 631.029 861.479C604.758 852.623 580.622 840.301 559.721 821.891C557.428 819.872 554.189 817.889 551.302 817.757C538.469 817.167 525.567 816.564 512.758 817.234C476.825 819.114 441.772 825.911 407.753 837.788C406.477 838.233 405.082 838.332 403.015 838.625ZM693.318 544.308C693.626 543.851 693.933 543.394 695.255 542.511C706.381 530.013 717.507 517.516 730.423 503.006C717.681 501.421 716.22 494.311 715.527 486.677C715.478 486.134 715.347 485.591 715.18 485.071C713.34 479.288 710.665 476.3 704.759 481.367C703.42 482.515 701.038 482.827 699.13 482.842C696.729 482.859 694.195 481.499 691.939 481.916C683.965 483.395 676.125 486.603 668.16 486.857C658.67 487.16 649.123 484.804 639.563 484.112C616.117 482.416 592.584 478.727 569.367 486.08C568.309 486.415 567.003 485.96 565.812 485.874C568.469 482.523 571.767 480.91 574.793 478.89C583.035 473.385 591.161 467.708 600.494 461.861C621.712 446.833 633.989 425.941 641.117 399.958C653.4 350.921 638.596 307.87 609.737 267.924C610.538 267.582 611.339 267.238 612.139 266.896C614.505 268.283 616.871 269.672 619.383 271.146C640.36 244.008 656.209 214.414 667.989 182.602C668.792 180.434 669.088 177.718 668.594 175.482C662.536 148.053 653.476 121.71 639.07 97.4464C636.085 92.4193 632.239 87.9029 628.214 82.3561C605.585 128.007 590.122 174.248 583.505 223.341C582.583 230.189 582.046 236.201 588.612 240.729C589.967 241.663 590.272 244.117 591.062 245.871C590.525 246.372 589.988 246.872 589.452 247.372C586.55 245.66 583.648 243.952 580.748 242.236C567.825 234.589 555.654 225.024 541.851 219.623C484.254 197.082 427.138 199.489 371.18 226.204C366.562 228.409 361.725 230.153 356.989 232.112C356.532 231.324 356.075 230.537 355.618 229.748C357.815 227.297 360.013 224.846 362.55 222.016C326.886 169.569 278.201 132.401 221.861 101.779C219.623 138.698 225.862 172.617 238.701 205.439C239.7 207.993 242.294 210.377 244.745 211.841C263.785 223.212 282.724 234.796 302.227 245.329C310.721 249.917 319.619 257.44 331.135 249.776C329.388 254.088 327.086 257.276 324.966 260.58C317.436 272.313 308.609 283.447 302.733 295.963C285.503 332.665 284.102 370.312 299.748 408.095C300.588 410.123 303.11 411.454 305.448 413.76C316.94 423.026 328.432 432.293 340.481 442.526C360.366 461.357 377.184 482.512 389.202 507.238C390.777 510.477 391.486 514.135 392.596 517.599C389.929 517.316 389.123 516.542 388.604 515.608C368.411 479.195 339.342 450.63 307.557 424.569C299.666 418.1 291.369 412.431 290.556 401.008C290.473 399.846 289.215 398.768 288.264 397.276C284.359 399.727 280.698 402.027 277.103 404.283C272.355 401.217 267.889 398.335 262.114 394.608C260.772 400.348 259.767 404.645 258.651 409.417C253.947 408.893 248.962 408.336 243.29 407.703C243.739 412.812 244.107 416.995 244.534 421.848C239.58 422.002 235.319 422.134 229.017 422.33C232.075 427.242 234.284 430.792 236.61 434.528C232.914 436.736 228.84 439.169 226.405 440.624C232.857 452.21 239.009 462.693 244.578 473.478C247.706 479.536 249.943 486.063 252.458 492.427C265.488 525.398 283.809 555.083 307.587 581.4C311.074 585.259 314.476 589.195 317.82 593.179C318.19 593.618 317.913 594.601 317.95 595.77C315.751 595.246 313.843 594.792 312.232 594.408C309.305 605.793 311.657 615.131 318.02 624.802C327.54 639.271 324.649 651.73 311.867 661.708C300.514 670.569 298.968 682.845 306.845 694.483C311.089 700.752 314.785 707.643 317.32 714.755C320.687 724.204 316.487 733.626 307.714 738.546C304.454 740.375 300.703 741.329 296.279 743.025C297.056 748.968 297.533 755.209 298.733 761.307C302.904 782.528 310.948 801.638 329.751 815.741C330.362 815.985 330.973 816.229 331.571 816.327C331.571 816.327 331.434 816.378 331.987 817.363C342.245 821.654 352.153 827.487 362.835 829.899C382.224 834.277 401.261 829.596 420.396 825.131C445.115 819.363 470.143 814.259 495.323 811.319C520.856 808.337 546.802 809.084 572.443 806.808C595.056 804.801 615.604 796.928 631.952 778.483C651.804 757.684 655.15 732.127 650.249 705.695C645.576 680.495 638.369 655.732 631.586 630.967C623.356 600.923 614.268 571.113 605.918 541.1C604.78 537.011 605.769 532.331 605.773 527.923C606.679 527.932 607.584 527.941 608.49 527.948C612.469 542.557 616.448 557.167 620.507 573.035C621.448 576.121 622.389 579.207 623.474 582.766C648.216 574.658 670.734 563.972 689.54 546.641C689.54 546.641 689.606 546.811 690.535 546.568C691.165 545.887 691.793 545.205 692.527 544.595C692.527 544.595 692.484 544.475 693.318 544.308ZM317.472 839.263C314.545 851.917 312.934 864.607 316.069 878.67C323.216 851.335 324.191 849.218 331.356 846.436C328.357 861.119 325.444 875.377 322.531 889.636C323.748 890.024 324.964 890.413 326.181 890.801C333.075 878.165 339.969 865.529 347.886 851.016C350.445 865.972 341.855 875.602 338.404 886.808C352.361 877.642 361.542 864.825 368.811 849.003C370.013 846.137 371.215 843.272 371.55 842.474C354.408 836.021 338.14 829.896 321.479 823.623C320.502 827.516 319.184 832.759 317.472 839.263ZM634.89 805.389C628.385 799.167 622.33 796.733 613.731 803.346C608.142 807.642 600.332 809.399 593.253 811.326C585.286 813.496 577.022 814.577 566.612 816.567C577.028 823.206 585.726 828.749 595.154 835.142C612.039 844.586 629.056 853.697 648.363 857.023C648.909 856.326 649.456 855.627 650.001 854.93C641.047 846.458 632.092 837.987 623.137 829.516C626.859 829.067 630.118 829.381 632.244 831.097C639.635 837.066 646.533 843.641 653.836 849.726C656.426 851.885 659.636 853.303 662.563 855.059C663.205 854.173 663.849 853.288 664.492 852.404C659.147 838.899 647.217 830.418 637.295 820.405C637.898 819.625 638.502 818.846 639.105 818.067C644.402 820.911 649.699 823.753 654.996 826.597C655.519 825.987 656.042 825.377 656.565 824.767C649.575 818.624 642.585 812.482 634.89 805.389ZM243.339 723.476C240.318 725.253 238.081 727.587 242.267 730.064C257.143 738.864 272.189 747.375 289.224 757.176C288.068 752.733 287.504 750.567 286.925 746.955C289.861 735.129 279.539 731.654 272.492 726.078C274.336 723.86 275.253 721.923 276.778 721.058C287.954 714.723 290.217 703.991 291.509 692.566C292.061 687.691 290.962 684.379 286.439 681.707C277.743 676.57 269.405 670.826 259.927 664.872C257.485 662.828 255.042 660.784 251.97 658.213C268.662 645.296 284.631 632.939 300.555 620.616C281.549 605.458 262.814 590.518 243.458 575.081C253.382 565.052 262.166 556.176 270.567 547.687C263.002 533.762 255.791 520.485 248.617 507.277C230.731 527.115 212.987 546.797 194.212 566.971C191.698 568.637 189.183 570.303 185.495 572.746C203.049 584.425 217.798 594.238 233.095 604.783C234.141 605.359 235.186 605.933 236.696 607.392C237.577 607.836 238.458 608.282 239.993 609.571C243.985 612.684 247.978 615.797 252.983 619.698C236.925 633.526 221.953 646.42 206.731 659.528C221.601 667.589 235.989 675.389 251.03 683.899C254.277 685.842 257.582 687.696 260.762 689.743C268.655 694.822 268.55 695.027 262.107 702.332C256.071 709.175 250.306 716.256 243.339 723.476ZM230.274 495.793C235.196 497.054 240.116 498.315 246.563 499.968C237.678 480.921 236.12 460.19 218.954 447.191C214.484 443.805 215.71 439.451 219.954 436.167C221.65 434.855 223.542 433.798 225.266 432.674C222.195 416.221 222.313 416.026 236.23 414.269C236.961 400.308 236.961 400.308 252.642 401.155C261.084 385.78 262.041 385.561 277.311 395.526C282.449 393.714 284.12 390.997 282.568 385.043C280.584 377.432 279.971 369.357 279.691 361.448C279.506 356.245 278.118 353.193 273.277 350.579C217.033 320.209 159.28 293.166 98.8859 272.092C74.4385 263.56 49.5093 256.408 23.7799 248.308C24.1508 252.712 24.1492 255.449 24.6393 258.096C31.2218 293.653 37.4691 329.278 44.6394 364.717C50.0071 391.246 56.5859 417.53 62.5733 445.316C65.2071 460.548 65.2553 460.295 80.2085 463.137C105.455 467.936 130.698 472.793 155.824 478.183C180.396 483.453 204.818 489.419 230.274 495.793ZM281.923 563.823C280.033 561.704 278.142 559.585 276.021 557.209C269.816 563.115 264.367 568.301 257.952 574.406C272.857 586.928 287.275 599.04 303.073 612.311C303.98 598.35 305.278 586.849 295.017 577.811C290.538 573.867 286.784 569.102 281.923 563.823ZM292.956 636.88C283.795 643.832 274.634 650.785 264.295 658.632C274.963 665.085 283.815 670.439 293.965 676.579C296.498 660.506 298.707 646.481 301.256 630.305C297.575 633.19 295.7 634.659 292.956 636.88ZM308.537 709.538C305.903 705.423 303.27 701.308 300.637 697.192C297.805 707.998 296.873 717.918 296.128 727.852C295.973 729.915 296.516 732.03 296.74 734.144C308.322 732.314 312.762 723.562 308.537 709.538ZM310.041 627.139C308.907 636.058 307.773 644.976 306.455 655.34C316.308 646.155 317.364 637.628 310.041 627.139Z" fill="#12181A"/>
<path d="M620.428 571.775C616.448 557.167 612.469 542.557 608.49 527.948C607.584 527.94 606.679 527.932 605.773 527.923C605.769 532.331 604.78 537.01 605.918 541.1C614.268 571.113 623.356 600.923 631.586 630.967C638.369 655.732 645.576 680.495 650.249 705.695C655.15 732.127 651.804 757.684 630.792 778.725C604.494 787.737 578.366 789.518 552.07 789.414C537.088 789.355 522.101 788.431 507.131 787.614C482.237 786.255 459.167 793.809 435.947 801.266C408.611 810.045 381.02 817.993 351.826 817.164C345.028 816.97 338.232 816.643 331.434 816.378C331.434 816.378 331.571 816.326 331.313 815.966C330.44 815.368 329.826 815.132 329.21 814.894C310.947 801.638 302.904 782.528 298.732 761.307C297.533 755.208 297.056 748.968 296.279 743.025C300.703 741.329 304.454 740.375 307.714 738.546C316.487 733.626 320.687 724.204 317.32 714.755C314.785 707.642 311.089 700.752 306.845 694.483C298.968 682.845 300.514 670.569 311.867 661.708C324.649 651.73 327.54 639.271 318.02 624.802C311.657 615.131 309.305 605.793 312.232 594.408C313.843 594.792 315.751 595.246 317.95 595.77C317.913 594.601 318.19 593.618 317.82 593.179C314.476 589.195 311.074 585.259 307.587 581.4C283.809 555.083 265.488 525.398 252.458 492.427C249.942 486.063 247.706 479.536 244.577 473.478C239.009 462.693 232.857 452.21 226.405 440.624C228.84 439.169 232.914 436.736 236.61 434.528C234.284 430.792 232.075 427.242 229.017 422.33C235.319 422.134 239.58 422.002 244.534 421.848C244.107 416.995 243.738 412.812 243.289 407.703C248.962 408.336 253.947 408.893 258.651 409.417C259.767 404.645 260.772 400.348 262.114 394.607C267.889 398.335 272.355 401.217 277.103 404.283C280.698 402.027 284.359 399.727 288.264 397.276C289.215 398.768 290.473 399.846 290.556 401.007C291.369 412.431 299.666 418.1 307.557 424.569C339.341 450.63 368.411 479.195 388.604 515.608C389.122 516.542 389.929 517.316 392.596 517.599C391.486 514.135 390.777 510.477 389.202 507.238C377.184 482.512 360.366 461.357 340.886 442.027C367.11 438.927 383.339 417.045 379.351 390.214C376.303 369.706 359.065 354.059 339.726 354.244C319.946 354.435 304.743 367.942 302.632 388.782C301.827 396.734 304.022 404.99 304.85 413.108C303.11 411.453 300.587 410.123 299.748 408.095C284.102 370.312 285.503 332.665 302.733 295.963C308.609 283.447 317.436 272.313 324.966 260.58C327.086 257.276 329.387 254.088 331.134 249.776C319.619 257.439 310.721 249.917 302.227 245.329C282.724 234.796 263.785 223.212 244.745 211.841C242.294 210.377 239.7 207.993 238.7 205.439C225.862 172.617 219.623 138.698 221.861 101.779C278.201 132.4 326.886 169.568 362.55 222.016C360.013 224.846 357.815 227.297 355.617 229.748C356.075 230.537 356.532 231.324 356.989 232.112C361.725 230.153 366.562 228.409 371.18 226.204C427.138 199.489 484.254 197.082 541.851 219.623C555.654 225.024 567.825 234.589 580.748 242.236C583.647 243.952 586.55 245.66 589.452 247.372C589.988 246.872 590.525 246.372 591.062 245.871C590.272 244.117 589.967 241.663 588.612 240.729C582.046 236.201 582.583 230.189 583.505 223.341C590.122 174.248 605.585 128.007 628.214 82.356C632.239 87.9028 636.085 92.4193 639.07 97.4463C653.476 121.71 662.536 148.053 668.594 175.482C669.088 177.718 668.792 180.434 667.989 182.602C656.209 214.414 640.36 244.008 619.383 271.146C616.871 269.672 614.505 268.283 612.139 266.896C611.339 267.238 610.538 267.582 609.737 267.924C638.596 307.87 653.4 350.921 640.448 399.919C634.633 377.478 614.304 375.568 599.433 385.096C585.394 394.09 576.559 407.054 572.268 422.951C565.581 447.723 574.187 459.932 599.333 462.1C591.161 467.708 583.035 473.385 574.792 478.89C571.767 480.91 568.469 482.523 565.812 485.874C567.003 485.96 568.309 486.415 569.367 486.08C592.584 478.727 616.116 482.416 639.563 484.112C649.123 484.804 658.67 487.16 668.16 486.857C676.125 486.603 683.965 483.395 691.939 481.916C694.195 481.499 696.729 482.859 699.13 482.842C701.038 482.827 703.419 482.515 704.759 481.367C710.665 476.3 713.34 479.288 715.18 485.071C715.347 485.591 715.478 486.134 715.527 486.677C716.22 494.31 717.681 501.421 730.423 503.006C717.507 517.516 706.381 530.013 694.365 542.865C692.995 543.518 692.664 543.937 692.484 544.475C692.484 544.475 692.527 544.595 691.979 544.633C690.821 545.385 690.213 546.099 689.606 546.811C689.606 546.811 689.539 546.641 688.979 546.602C684.182 548.377 679.932 550.155 675.713 552.006C657.747 559.888 640.649 570.192 620.428 571.775ZM381.603 284.842C380.162 285.63 378.659 286.325 377.289 287.22C363.979 295.917 358.001 312.997 363.122 327.59C368.407 342.651 383.509 352.506 398.962 350.975C415.51 349.338 428.502 336.662 430.521 320.183C433.792 293.492 410.34 275.85 381.603 284.842ZM540.557 382.167C533.674 387.329 525.666 387.811 518.784 383.972C503.25 375.307 487.512 375.904 471.222 380.281C469.642 380.706 467.988 380.88 466.357 381.085C452.376 382.843 439.406 381.783 430.707 368.491C430.075 367.527 428.688 367.055 427.443 366.212C425.915 373.92 428.716 380.081 436.777 384.274C441.091 386.519 442.322 389.266 442.872 393.672C444.998 410.696 449.583 426.947 460.026 440.965C472.516 457.732 486.487 458.954 501.566 444.461C514.278 432.243 522.413 417.078 528.236 400.663C529.9 395.975 531.852 392.876 537.157 391.559C543.64 389.95 547.498 385.308 548.49 375.915C545.011 378.604 543.24 379.975 540.557 382.167ZM608.512 341.226C608.957 334.742 610.405 328.137 609.646 321.797C607.836 306.682 594.769 294.37 581.596 294.157C568.053 293.936 557.336 303.972 554.173 319.839C550.656 337.487 559.505 355.623 574.056 360.581C587.732 365.241 600.058 358.647 608.512 341.226ZM468.061 509.135C481.084 513.397 486.295 512.464 494.243 502.706C481.743 501.836 470.758 501.072 459.774 500.308C459.537 501.389 459.3 502.471 459.063 503.553C461.673 505.25 464.282 506.945 468.061 509.135Z" fill="#FEE000"/>
<path d="M62.6255 443.924C56.5859 417.53 50.0071 391.246 44.6394 364.717C37.469 329.278 31.2218 293.653 24.6392 258.096C24.1492 255.449 24.1507 252.711 23.7799 248.308C49.5093 256.408 74.4385 263.56 98.8859 272.092C159.28 293.166 217.033 320.209 273.277 350.579C278.117 353.193 279.506 356.245 279.691 361.448C279.971 369.357 280.584 377.432 282.568 385.042C284.12 390.997 282.449 393.714 277.315 395.528C262.041 385.561 261.084 385.779 252.642 401.155C236.961 400.308 236.961 400.308 236.23 414.269C222.313 416.026 222.195 416.221 225.266 432.674C223.542 433.798 221.65 434.855 219.954 436.167C215.71 439.451 214.484 443.805 218.954 447.19C236.12 460.19 237.678 480.921 246.563 499.968C240.116 498.315 235.196 497.054 229.48 494.947C225.722 492.736 222.872 491.004 219.781 490.061C174.549 476.269 129.303 462.521 84.01 448.931C77.0112 446.832 69.76 445.572 62.6255 443.924Z" fill="#FEE000"/>
<path d="M195.243 566.479C212.987 546.797 230.731 527.115 248.617 507.277C255.791 520.485 263.002 533.762 270.567 547.687C262.166 556.176 253.382 565.052 243.458 575.081C262.814 590.518 281.549 605.458 300.555 620.616C284.631 632.939 268.661 645.296 251.969 658.213C255.042 660.784 257.485 662.828 260.063 665.563C259.344 669.064 258.488 671.873 257.568 674.893C255.51 674.646 252.911 674.333 249.54 673.928C249.85 677.369 250.112 680.278 250.375 683.188C235.989 675.389 221.601 667.589 206.731 659.528C221.953 646.42 236.925 633.526 252.983 619.698C247.978 615.797 243.985 612.684 239.48 608.66C238.055 607.336 237.143 606.923 236.231 606.509C235.186 605.934 234.141 605.359 232.827 603.806C230.581 600.301 228.89 597.467 226.577 595.296C216.23 585.587 205.704 576.068 195.243 566.479Z" fill="#FCDE00"/>
<path d="M305.149 413.434C304.022 404.99 301.827 396.734 302.632 388.782C304.743 367.942 319.946 354.435 339.726 354.244C359.065 354.059 376.304 369.706 379.352 390.214C383.339 417.045 367.11 438.927 340.608 441.543C328.432 432.293 316.94 423.026 305.149 413.434Z" fill="#E60213"/>
<path d="M331.71 816.87C338.232 816.643 345.028 816.97 351.826 817.164C381.02 817.993 408.611 810.045 435.947 801.266C459.167 793.809 482.237 786.255 507.131 787.614C522.101 788.431 537.088 789.355 552.071 789.414C578.366 789.518 604.494 787.737 630.307 778.971C615.604 796.928 595.056 804.801 572.443 806.808C546.802 809.084 520.856 808.337 495.323 811.319C470.143 814.259 445.115 819.363 420.396 825.131C401.261 829.596 382.224 834.277 362.835 829.899C352.153 827.487 342.244 821.654 331.71 816.87Z" fill="#F7BC00"/>
<path d="M599.913 461.98C574.186 459.932 565.581 447.723 572.268 422.951C576.559 407.054 585.393 394.091 599.433 385.096C614.304 375.568 634.632 377.478 640.064 400.525C633.988 425.94 621.712 446.833 599.913 461.98Z" fill="#E50213"/>
<path d="M250.702 683.544C250.112 680.278 249.85 677.369 249.54 673.928C252.911 674.333 255.51 674.646 257.568 674.893C258.488 671.873 259.344 669.064 260.559 665.793C269.405 670.826 277.743 676.57 286.439 681.707C290.962 684.379 292.061 687.691 291.509 692.566C290.217 703.991 287.954 714.723 276.778 721.058C275.253 721.923 274.336 723.86 272.492 726.078C279.539 731.654 289.861 735.129 286.384 747.473C282.128 745.684 278.45 743.316 274.69 741.084C264.619 735.102 254.513 729.179 244.42 723.232C250.306 716.256 256.071 709.175 262.107 702.332C268.55 695.027 268.655 694.822 260.763 689.743C257.582 687.696 254.277 685.842 250.702 683.544Z" fill="#753B03"/>
<path d="M635.595 806.34C642.585 812.482 649.575 818.624 656.564 824.767C656.042 825.377 655.519 825.987 654.996 826.597C649.699 823.753 644.402 820.911 639.105 818.067C638.502 818.846 637.899 819.625 637.295 820.405C647.217 830.418 659.147 838.899 664.491 852.404C663.848 853.288 663.205 854.173 662.562 855.059C659.636 853.303 656.426 851.885 653.836 849.726C646.533 843.641 639.635 837.066 632.244 831.097C630.118 829.381 626.859 829.067 623.137 829.516C632.092 837.987 641.047 846.458 650.001 854.93C649.455 855.627 648.909 856.326 648.363 857.023C629.056 853.697 612.039 844.586 594.767 834.077C597.417 827.577 599.376 820.984 603.718 816.952C612.424 808.867 623.986 806.988 635.595 806.34Z" fill="#F9DC01"/>
<path d="M62.5995 444.62C69.7601 445.572 77.0113 446.832 84.0101 448.931C129.303 462.521 174.549 476.269 219.781 490.061C222.872 491.004 225.722 492.736 228.996 494.59C204.818 489.419 180.396 483.453 155.824 478.183C130.698 472.793 105.455 467.936 80.2086 463.137C65.2553 460.294 65.2072 460.548 62.5995 444.62Z" fill="#F5BB01"/>
<path d="M368.052 849.854C361.543 864.825 352.361 877.642 338.404 886.808C341.855 875.602 350.445 865.972 347.887 851.016C339.969 865.529 333.075 878.165 326.181 890.801C324.964 890.413 323.748 890.024 322.531 889.636C325.444 875.377 328.357 861.119 331.356 846.436C324.191 849.218 323.216 851.335 316.069 878.67C312.934 864.607 314.545 851.916 318.404 838.601C337.082 835.753 352.649 842.469 368.052 849.854Z" fill="#F8DB01"/>
<path d="M282.313 564.267C286.783 569.102 290.538 573.867 295.017 577.811C305.279 586.849 303.98 598.35 303.073 612.311C287.275 599.04 272.857 586.928 257.953 574.406C264.367 568.301 269.816 563.115 276.021 557.209C278.142 559.585 280.033 561.704 282.313 564.267Z" fill="black"/>
<path d="M293.391 636.503C295.7 634.659 297.575 633.189 301.256 630.305C298.707 646.481 296.498 660.506 293.965 676.579C283.815 670.439 274.964 665.085 264.295 658.631C274.634 650.785 283.795 643.832 293.391 636.503Z" fill="black"/>
<path d="M635.243 805.865C623.986 806.988 612.424 808.867 603.718 816.952C599.376 820.984 597.417 827.578 594.402 833.652C585.726 828.749 577.028 823.206 566.612 816.567C577.022 814.577 585.286 813.496 593.253 811.326C600.332 809.399 608.142 807.642 613.731 803.346C622.33 796.733 628.385 799.167 635.243 805.865Z" fill="#F2B901"/>
<path d="M620.468 572.406C640.649 570.192 657.747 559.888 675.713 552.006C679.932 550.155 684.182 548.377 689.063 546.637C670.734 563.972 648.216 574.658 623.474 582.766C622.389 579.207 621.448 576.121 620.468 572.406Z" fill="#F3B901"/>
<path d="M368.432 849.428C352.65 842.469 337.083 835.753 318.601 837.971C319.184 832.759 320.502 827.516 321.48 823.623C338.139 829.896 354.408 836.021 371.55 842.474C371.215 843.272 370.013 846.137 368.432 849.428Z" fill="#F3BA01"/>
<path d="M243.88 723.354C254.513 729.179 264.619 735.102 274.691 741.084C278.45 743.316 282.128 745.684 286.391 748.195C287.504 750.567 288.068 752.733 289.224 757.176C272.189 747.375 257.143 738.863 242.267 730.064C238.081 727.587 240.318 725.253 243.88 723.354Z" fill="#502502"/>
<path d="M308.803 710.134C312.763 723.562 308.322 732.314 296.74 734.144C296.516 732.03 295.973 729.915 296.128 727.852C296.873 717.918 297.805 707.998 300.637 697.192C303.27 701.308 305.903 705.423 308.803 710.134Z" fill="#713904"/>
<path d="M194.728 566.726C205.704 576.068 216.23 585.587 226.577 595.296C228.89 597.467 230.581 600.301 232.554 603.441C217.799 594.238 203.049 584.425 185.495 572.746C189.184 570.303 191.698 568.637 194.728 566.726Z" fill="#F2B901"/>
<path d="M310.62 627.18C317.364 637.627 316.308 646.155 306.455 655.34C307.773 644.976 308.907 636.058 310.62 627.18Z" fill="#6E3805"/>
<path d="M236.463 606.95C237.143 606.923 238.055 607.336 239.153 608.239C238.457 608.283 237.577 607.837 236.463 606.95Z" fill="#F2B901"/>
<path d="M690.071 546.69C690.213 546.099 690.821 545.385 691.926 544.598C691.793 545.205 691.165 545.887 690.071 546.69Z" fill="#F3B901"/>
<path d="M329.481 815.318C329.826 815.131 330.44 815.369 331.32 816.04C330.973 816.229 330.362 815.985 329.481 815.318Z" fill="#F7BC00"/>
<path d="M692.901 544.392C692.664 543.938 692.995 543.519 693.859 543.078C693.933 543.394 693.626 543.851 692.901 544.392Z" fill="#F3B901"/>
<path d="M382.193 284.558C410.34 275.85 433.792 293.492 430.521 320.183C428.502 336.662 415.51 349.338 398.962 350.975C383.509 352.506 368.408 342.651 363.122 327.59C358.002 312.997 363.979 295.917 377.289 287.22C378.659 286.325 380.162 285.63 382.193 284.558ZM391.842 314.877C398.364 318.184 405.225 318.205 410.001 312.847C413.074 309.4 415.057 303.701 414.993 299.046C414.896 291.97 409.494 287.919 402.606 286.884C395.393 285.799 389.52 288.433 386.266 295.166C382.71 302.524 384.302 308.985 391.842 314.877Z" fill="#12191C"/>
<path d="M541.013 381.756C543.24 379.975 545.011 378.604 548.49 375.916C547.498 385.308 543.64 389.95 537.157 391.559C531.851 392.876 529.9 395.975 528.236 400.664C522.413 417.079 514.278 432.243 501.566 444.461C486.487 458.954 472.516 457.732 460.026 440.965C449.582 426.947 444.998 410.696 442.872 393.672C442.322 389.266 441.091 386.519 436.777 384.274C428.716 380.081 425.915 373.92 427.443 366.212C428.688 367.055 430.075 367.527 430.707 368.491C439.406 381.783 452.376 382.843 466.357 381.085C467.988 380.88 469.642 380.706 471.222 380.281C487.512 375.904 503.25 375.307 518.784 383.972C525.667 387.811 533.674 387.329 541.013 381.756ZM519.337 391.646C497.338 374.794 474.708 389.177 451.698 389.528C452.151 394.588 452.53 398.825 452.943 403.43C475.472 399.774 494.693 404.116 511.387 424.048C514.852 411.93 517.677 402.053 519.337 391.646ZM500.708 421.304C487.287 409.762 471.821 407.548 453.938 410.8C456.518 417.676 458.372 423.948 461.147 429.783C472.296 453.231 486.678 454.376 502.49 433.716C506.194 428.876 505.846 425.676 500.708 421.304Z" fill="#19191A"/>
<path d="M608.257 341.825C600.059 358.647 587.732 365.241 574.056 360.581C559.505 355.623 550.656 337.488 554.174 319.839C557.336 303.973 568.053 293.936 581.596 294.157C594.77 294.37 607.836 306.682 609.646 321.797C610.406 328.137 608.957 334.742 608.257 341.825ZM571.696 323.7C577.832 327.795 584.74 328.734 589.491 323.019C592.471 319.436 594.315 312.753 593.096 308.478C591.994 304.619 586.276 300.121 582.151 299.631C578.062 299.147 572.204 302.279 569.301 305.683C564.783 310.981 566.136 317.446 571.696 323.7Z" fill="#12191C"/>
<path d="M467.476 508.888C464.282 506.944 461.673 505.249 459.063 503.553C459.3 502.471 459.537 501.389 459.774 500.307C470.758 501.072 481.743 501.836 494.243 502.706C486.295 512.463 481.084 513.397 467.476 508.888Z" fill="#FAC000"/>
<path d="M391.285 314.518C384.302 308.986 382.71 302.524 386.266 295.166C389.52 288.433 395.393 285.799 402.606 286.884C409.494 287.919 414.896 291.97 414.993 299.046C415.057 303.701 413.074 309.4 410.001 312.847C405.225 318.205 398.364 318.184 391.285 314.518Z" fill="#F9F9FA"/>
<path d="M519.919 391.911C517.677 402.053 514.852 411.93 511.387 424.048C494.693 404.116 475.472 399.774 452.944 403.43C452.531 398.825 452.151 394.588 451.698 389.528C474.708 389.177 497.339 374.794 519.919 391.911Z" fill="#B20007"/>
<path d="M501.14 421.712C505.846 425.676 506.194 428.876 502.49 433.716C486.678 454.376 472.296 453.231 461.147 429.783C458.372 423.948 456.518 417.676 453.938 410.8C471.821 407.548 487.287 409.762 501.14 421.712Z" fill="#E10013"/>
<path d="M571.229 323.27C566.136 317.446 564.782 310.981 569.301 305.683C572.204 302.279 578.062 299.147 582.151 299.631C586.276 300.121 591.994 304.619 593.095 308.478C594.315 312.753 592.471 319.436 589.491 323.019C584.74 328.734 577.831 327.795 571.229 323.27Z" fill="#F8F8F8"/>
</g>
<defs>
<clipPath id="clip0_15_131">
<rect width="720.102" height="887.646" fill="white" transform="translate(0.38562 22.3999) rotate(-1.78028)"/>
</clipPath>
</defs>
</svg>
